<svg xmlns="http://www.w3.org/2000/svg">
  <defs>
    <g id="order_icon">
      <path fill-rule="evenodd" clip-rule="evenodd" d="M0.670854 3.83764C0.443049 4.06545 0.443049 4.43479 0.670854 4.6626C0.89866 4.89041 1.26801 4.89041 1.49581 4.6626L4 2.15841L6.50419 4.6626C6.73199 4.89041 7.10134 4.89041 7.32914 4.6626C7.55695 4.4348 7.55695 4.06545 7.32914 3.83764L4.41248 0.920977C4.30308 0.81158 4.15471 0.750122 4 0.750122C3.84529 0.750122 3.69692 0.81158 3.58752 0.920977L0.670854 3.83764Z" fill="#8992A9"/>
      <path fill-rule="evenodd" clip-rule="evenodd" d="M7.32915 8.16256C7.55695 7.93475 7.55695 7.56541 7.32915 7.3376C7.10134 7.1098 6.73199 7.1098 6.50419 7.3376L4 9.84179L1.49581 7.3376C1.26801 7.1098 0.89866 7.1098 0.670855 7.3376C0.443048 7.56541 0.443048 7.93476 0.670855 8.16256L3.58752 11.0792C3.81533 11.307 4.18467 11.307 4.41248 11.0792L7.32915 8.16256Z" fill="#8992A9"/>
    </g>
  </defs>
</svg>